<svg xmlns="http://www.w3.org/2000/svg" viewBox="0 0 64 64">
  <defs>
    <linearGradient id="n26Storm" x1="0%" y1="0%" x2="0%" y2="100%">
      <stop offset="0%" stop-color="#F6D9A7"/>
      <stop offset="100%" stop-color="#FF8A5B"/>
    </linearGradient>
  </defs>
  <g>
    <path d="M22 40h24a10 10 0 0 0 0-20 14 14 0 0 0-27.3-3.8A12 12 0 0 0 22 40z" fill="#F0F6FF"/>
    <path d="M22 40h24a10 10 0 0 0 0-20 14 14 0 0 0-27.3-3.8A12 12 0 0 0 22 40z" fill="none" stroke="#D9E6FA" stroke-width="3" stroke-linecap="round" stroke-linejoin="round"/>
    <path d="M34 30l-6 10h6l-2 8 8-14h-6l2-4z" fill="url(#n26Storm)"/>
  </g>
</svg>
