<svg xmlns="http://www.w3.org/2000/svg" viewBox="0 0 64 64">
  <defs>
    <linearGradient id="gHail3dC" x1="0%" y1="0%" x2="0%" y2="100%">
      <stop offset="0%" stop-color="#F7FBFF"/>
      <stop offset="100%" stop-color="#DCEEFF"/>
    </linearGradient>
    <linearGradient id="gHail3d" x1="0%" y1="0%" x2="0%" y2="100%">
      <stop offset="0%" stop-color="#FFFFFF"/>
      <stop offset="100%" stop-color="#DCEEFF"/>
    </linearGradient>
    <filter id="dsHail" x="-20%" y="-20%" width="140%" height="140%">
      <feDropShadow dx="0" dy="3" stdDeviation="3" flood-opacity="0.16"/>
    </filter>
  </defs>
  <g filter="url(#dsHail)">
    <path d="M22 40h24a10 10 0 0 0 0-20 14 14 0 0 0-27.3-3.8A12 12 0 0 0 22 40z" fill="url(#gHail3dC)"/>
    <path d="M22 40h24a10 10 0 0 0 0-20 14 14 0 0 0-27.3-3.8A12 12 0 0 0 22 40z" stroke="#BFD7F7" stroke-width="3" fill="none" stroke-linecap="round" stroke-linejoin="round"/>
    <g fill="url(#gHail3d)">
      <circle cx="18" cy="50" r="3"/>
      <circle cx="26" cy="52" r="3"/>
      <circle cx="34" cy="50" r="3"/>
      <circle cx="42" cy="53" r="3"/>
      <circle cx="50" cy="51" r="3"/>
    </g>
  </g>
</svg>
