<svg xmlns="http://www.w3.org/2000/svg" viewBox="0 0 64 64">
  <defs>
    <linearGradient id="n26Sleet" x1="0%" y1="0%" x2="0%" y2="100%">
      <stop offset="0%" stop-color="#BFE9FF"/>
      <stop offset="100%" stop-color="#7FD1FF"/>
    </linearGradient>
  </defs>
  <g>
    <path d="M22 40h24a10 10 0 0 0 0-20 14 14 0 0 0-27.3-3.8A12 12 0 0 0 22 40z" fill="#EAF8FF"/>
    <path d="M22 40h24a10 10 0 0 0 0-20 14 14 0 0 0-27.3-3.8A12 12 0 0 0 22 40z" fill="none" stroke="#A9CFF0" stroke-width="3" stroke-linecap="round" stroke-linejoin="round"/>
    <g>
      <circle cx="26" cy="50" r="2.4" fill="url(#n26Sleet)"/>
      <path d="M34 46l-2 6" stroke="url(#n26Sleet)" stroke-width="3" fill="none" stroke-linecap="round"/>
      <circle cx="42" cy="50" r="2.4" fill="url(#n26Sleet)"/>
      <path d="M46 48l-2 6" stroke="url(#n26Sleet)" stroke-width="3" fill="none" stroke-linecap="round"/>
    </g>
  </g>
</svg>
