<svg xmlns="http://www.w3.org/2000/svg" viewBox="0 0 64 64">
  <defs>
    <linearGradient id="gSnow3d" x1="0%" y1="0%" x2="0%" y2="100%">
      <stop offset="0%" stop-color="#FFFFFF"/>
      <stop offset="100%" stop-color="#DFF4FF"/>
    </linearGradient>
    <filter id="dsSnow" x="-20%" y="-20%" width="140%" height="140%">
      <feDropShadow dx="0" dy="3" stdDeviation="3" flood-opacity="0.14"/>
    </filter>
  </defs>
  <g filter="url(#dsSnow)">
    <path d="M22 40h24a10 10 0 0 0 0-20 14 14 0 0 0-27.3-3.8A12 12 0 0 0 22 40z" fill="#FBFEFF"/>
    <path d="M22 40h24a10 10 0 0 0 0-20 14 14 0 0 0-27.3-3.8A12 12 0 0 0 22 40z" stroke="#D1EAFB" stroke-width="3" fill="none" stroke-linecap="round" stroke-linejoin="round"/>
    <g>
      <circle cx="24" cy="48" r="3" fill="url(#gSnow3d)"/>
      <circle cx="32" cy="48" r="3" fill="url(#gSnow3d)"/>
      <circle cx="40" cy="48" r="3" fill="url(#gSnow3d)"/>
    </g>
  </g>
</svg>
