<!-- assets/icons/rain.svg -->
<svg xmlns="http://www.w3.org/2000/svg" viewBox="0 0 64 64" role="img" aria-labelledby="title desc">
  <title>Regn</title>
  <desc>Moln med tre stiliserade regndroppar</desc>

  <!-- Moln: mjuk, rundad siluett -->
  <path fill="#111"
        d="M46.5 46H22.2c-6.8 0-12.2-5.4-12.2-12.2 0-5.6 3.9-10.5 9.4-11.8C21 15.8 28 11 35.9 12.7
           c5.1 1.1 9.1 4.6 11 9.2 5.8.5 10.3 5.3 10.3 11.2C57.2 41.2 52.4 46 46.5 46z"/>

  <!-- Droppar: diskret glans, rundade toppar -->
  <g fill="#111" opacity=".95">
    <!-- Vänster droppe -->
    <path d="M22 51c0 3 2.4 5 5 5s5-2 5-5c0-3.6-3.3-6.2-4.4-9.2-.2-.6-1-.6-1.2 0C25.3 44.8 22 47.4 22 51z"/>
    <!-- Mitten droppe -->
    <path d="M30.5 54c0 3 2.4 5 5 5s5-2 5-5c0-3.6-3.3-6.2-4.4-9.2-.2-.6-1-.6-1.2 0-1.1 3-4.4 5.6-4.4 9.2z"/>
    <!-- Höger droppe -->
    <path d="M39 51c0 3 2.4 5 5 5s5-2 5-5c0-3.6-3.3-6.2-4.4-9.2-.2-.6-1-.6-1.2 0-1.1 3-4.4 5.6-4.4 9.2z"/>
  </g>
</svg>
