<svg xmlns="http://www.w3.org/2000/svg" viewBox="0 0 64 64">
  <!-- Molnet -->
  <path fill="#111" d="M22 40h24a10 10 0 0 0 0-20 14 14 0 0 0-27.3-3.8A12 12 0 0 0 22 40z"/>
  <!-- Snöblandat regn - växlande snöflingor och regndroppar -->
  <g fill="#111" opacity="0.9">
    <!-- Snöflinga 1 -->
    <path d="M20 48l-1.5-2.5h3l-1.5 2.5"/>
    <!-- Regndroppe 1 -->
    <path d="M28 50c0 2-1.5 3.5-3.5 3.5s-3.5-1.5-3.5-3.5c0-2.5 2.3-4.2 3-6-.1-.4-.7-.4-.8 0-.7 1.8-3 3.5-3 6 0 2.5 2 4.5 4.5 4.5s4.5-2 4.5-4.5c0-2.5-2.3-4.2-3-6-.1-.4-.7-.4-.8 0 .7 1.8 3 3.5 3 6z"/>
    <!-- Snöflinga 2 -->
    <path d="M36 48l-1.5-2.5h3l-1.5 2.5"/>
    <!-- Regndroppe 2 -->
    <path d="M44 50c0 2-1.5 3.5-3.5 3.5s-3.5-1.5-3.5-3.5c0-2.5 2.3-4.2 3-6-.1-.4-.7-.4-.8 0-.7 1.8-3 3.5-3 6 0 2.5 2 4.5 4.5 4.5s4.5-2 4.5-4.5c0-2.5-2.3-4.2-3-6-.1-.4-.7-.4-.8 0 .7 1.8 3 3.5 3 6z"/>
  </g>
</svg>
